<svg width="18" height="18" viewBox="0 0 18 18" fill="none" xmlns="http://www.w3.org/2000/svg">
<path d="M3 12H5.4C5.71667 12 5.9875 11.8875 6.2125 11.6625C6.4375 11.4375 6.55 11.1667 6.55 10.85V7.15C6.55 6.83333 6.4375 6.5625 6.2125 6.3375C5.9875 6.1125 5.71667 6 5.4 6H3V12ZM4.15 10.85V7.15H5.4V10.85H4.15ZM7.875 12H10.325V10.85H8.275V9.55H9.575V8.4H8.275V7.15H10.325V6H7.875C7.65833 6 7.47917 6.07083 7.3375 6.2125C7.19583 6.35417 7.125 6.53333 7.125 6.75V11.25C7.125 11.4667 7.19583 11.6458 7.3375 11.7875C7.47917 11.9292 7.65833 12 7.875 12ZM13.025 11.975C13.2417 11.975 13.4292 11.9042 13.5875 11.7625C13.7458 11.6208 13.85 11.4417 13.9 11.225L15.3 6H14.1L13.025 10.1L11.95 6H10.75L12.15 11.225C12.2 11.4417 12.3042 11.6208 12.4625 11.7625C12.6208 11.9042 12.8083 11.975 13.025 11.975ZM2 18C1.45 18 0.979167 17.8042 0.5875 17.4125C0.195833 17.0208 0 16.55 0 16V2C0 1.45 0.195833 0.979167 0.5875 0.5875C0.979167 0.195833 1.45 0 2 0H16C16.55 0 17.0208 0.195833 17.4125 0.5875C17.8042 0.979167 18 1.45 18 2V16C18 16.55 17.8042 17.0208 17.4125 17.4125C17.0208 17.8042 16.55 18 16 18H2ZM2 16H16V2H2V16Z" fill="#27AE60"/>
</svg>
